<svg xmlns="http://www.w3.org/2000/svg" version="1.1" xmlns:xlink="http://www.w3.org/1999/xlink" xmlns:svgjs="http://svgjs.com/svgjs" width="1440" height="1000" preserveAspectRatio="none" viewBox="0 0 1440 1000"><g mask="url(&quot;#SvgjsMask1712&quot;)" fill="none"><rect width="1440" height="1000" x="0" y="0" fill="url(#SvgjsLinearGradient1713)"></rect><path d="M1440 0L1398.2 0L1440 302.73z" fill="rgba(255, 255, 255, .1)"></path><path d="M1398.2 0L1440 302.73L1440 484.66L923.95 0z" fill="rgba(255, 255, 255, .075)"></path><path d="M923.95 0L1440 484.66L1440 553.83L683.09 0z" fill="rgba(255, 255, 255, .05)"></path><path d="M683.09 0L1440 553.83L1440 811.1200000000001L400.94000000000005 0z" fill="rgba(255, 255, 255, .025)"></path><path d="M0 1000L248.34 1000L0 625.47z" fill="rgba(0, 0, 0, .1)"></path><path d="M0 625.47L248.34 1000L451.63 1000L0 585.5z" fill="rgba(0, 0, 0, .075)"></path><path d="M0 585.5L451.63 1000L1067.8400000000001 1000L0 438.77z" fill="rgba(0, 0, 0, .05)"></path><path d="M0 438.77L1067.8400000000001 1000L1178.3700000000001 1000L0 148.52999999999997z" fill="rgba(0, 0, 0, .025)"></path></g><defs><mask id="SvgjsMask1712"><rect width="1440" height="1000" fill="#ffffff"></rect></mask><linearGradient x1="7.64%" y1="-11%" x2="92.36%" y2="111%" gradientUnits="userSpaceOnUse" id="SvgjsLinearGradient1713"><stop stop-color="rgba(14, 42, 71, 1)" offset="0.15"></stop><stop stop-color="rgba(167, 138, 6, 1)" offset="0.76"></stop></linearGradient></defs></svg>