<svg xmlns="http://www.w3.org/2000/svg" version="1.1" xmlns:xlink="http://www.w3.org/1999/xlink" xmlns:svgjs="http://svgjs.com/svgjs" width="1200" height="1000" preserveAspectRatio="none" viewBox="0 0 1200 1000"><g mask="url(&quot;#SvgjsMask1036&quot;)" fill="none"><rect width="1200" height="1000" x="0" y="0" fill="#0e2a47"></rect><circle r="15.8" cx="650.0799999999999" cy="714.87" filter="url(#SvgjsFilter1037)" fill="rgba(255, 199, 2, 0.58)"></circle><circle r="16.445" cx="499.59499999999997" cy="352.28499999999997" filter="url(#SvgjsFilter1037)" fill="rgba(255, 199, 2, 0.58)"></circle><circle r="13.74" cx="1179.6200000000001" cy="489.15000000000003" filter="url(#SvgjsFilter1037)" fill="rgba(255, 199, 2, 0.58)"></circle><circle r="14.845" cx="759.605" cy="1007.945" filter="url(#SvgjsFilter1037)" fill="rgba(255, 199, 2, 0.58)"></circle><circle r="8.395" cx="784.255" cy="502.565" filter="url(#SvgjsFilter1037)" fill="rgba(255, 199, 2, 0.58)"></circle><circle r="9.98" cx="374.92" cy="925.65" filter="url(#SvgjsFilter1037)" fill="rgba(255, 199, 2, 0.58)"></circle><circle r="16.24" cx="840.16" cy="803.32" filter="url(#SvgjsFilter1037)" fill="rgba(255, 199, 2, 0.58)"></circle><circle r="9.775" cx="460.205" cy="418.78499999999997" filter="url(#SvgjsFilter1037)" fill="rgba(255, 199, 2, 0.58)"></circle><circle r="12.32" cx="621.12" cy="871.82" filter="url(#SvgjsFilter1037)" fill="rgba(255, 199, 2, 0.58)"></circle><circle r="10.285" cx="196.215" cy="60.474999999999994" filter="url(#SvgjsFilter1037)" fill="rgba(255, 199, 2, 0.58)"></circle><circle r="10.13" cx="579.5" cy="93.50999999999999" filter="url(#SvgjsFilter1037)" fill="rgba(255, 199, 2, 0.58)"></circle><circle r="10.98" cx="191.56" cy="252.85" filter="url(#SvgjsFilter1037)" fill="rgba(255, 199, 2, 0.58)"></circle><circle r="14.77" cx="751.9" cy="492.75" filter="url(#SvgjsFilter1037)" fill="rgba(255, 199, 2, 0.58)"></circle><circle r="9.775" cx="565.555" cy="858.045" filter="url(#SvgjsFilter1037)" fill="rgba(255, 199, 2, 0.58)"></circle><circle r="12.025" cx="1060.6650000000002" cy="87.685" filter="url(#SvgjsFilter1037)" fill="rgba(255, 199, 2, 0.58)"></circle><circle r="12.03" cx="550.73" cy="754.8199999999999" filter="url(#SvgjsFilter1037)" fill="rgba(255, 199, 2, 0.58)"></circle><circle r="10.36" cx="1207.76" cy="766.9300000000001" filter="url(#SvgjsFilter1037)" fill="rgba(255, 199, 2, 0.58)"></circle><circle r="8.485" cx="491.495" cy="506.845" filter="url(#SvgjsFilter1037)" fill="rgba(255, 199, 2, 0.58)"></circle><circle r="8.65" cx="839.0699999999999" cy="718.9" filter="url(#SvgjsFilter1037)" fill="rgba(255, 199, 2, 0.58)"></circle><circle r="10.825" cx="390.85499999999996" cy="394.145" filter="url(#SvgjsFilter1037)" fill="rgba(255, 199, 2, 0.58)"></circle><path d="M1017.8 932.6L1036.3 930.6 1032.2 941C1031.7 942.1 1032.3 943.7 1033.6 944.7 1035.1 944.9 1036.7 944.3 1036.9 942.8L1042.5 929.9 1056.9 927.6 1045.3 954.6C1045.1 956.1 1045.6 957.7 1046.7 958.2 1048.5 958.8 1050.1 958.3 1050.3 956.8L1063 926.9 1085.1 924.2 1072.6 946.5 1097.4 940.3 1088.9 960.8 1056.8 965.3C1056.4 964.8 1056 965.2 1055.6 965.5 1054.7 966.1 1054.2 967.2 1054.4 968.4 1054.7 969.5 1056.1 970.5 1057.6 970.7L1086.6 966.6 1080.7 979.9 1066.7 981.8C1066 981.7 1065.5 982 1065.1 982.4 1064.7 982.7 1064.2 983.8 1064.4 984.9 1064.6 986.1 1066 987.1 1067.2 986.8L1078.4 985.7 1071.5 1003C1070.5 1004.4 1071.5 1005.7 1072.9 1006.6 1074 1007.1 1075.6 1006.6 1076.2 1004.8L1083.4 987.9 1090.2 996.8C1091.2 998 1093.1 997.9 1093.9 997.3 1095.2 996.3 1095.4 994.8 1094.4 993.5L1085.7 982.1 1091.7 968.8 1109.1 991.7C1110.1 993 1111.6 993.2 1112.9 992.2 1113.7 991.6 1114.4 989.7 1113.4 988.5L1094 963 1102.4 942.5 1115.5 964 1122.6 939.8 1136.2 957.7 1123.8 987.2C1123.2 989 1124.2 990.3 1125.2 990.8 1126.3 991.3 1127.9 990.8 1128.9 989.4L1139.7 962.3 1148.5 973.8 1143.2 987.1C1142.3 988.5 1142.8 990.1 1144.7 990.8 1145.7 991.3 1147.3 990.7 1147.9 988.9L1152.3 978.8 1163.7 993.7C1164.6 995 1166.1 995.2 1167.4 994.2S1168.9 991.7 1167.9 990.4L1156.6 975.6 1167.4 974C1169.4 973.9 1170.3 972.5 1170.1 971.3 1170 969.4 1168.6 968.5 1167 969L1152.7 970.5 1144 959.1 1172.9 955.7C1174.5 955.2 1175.5 953.8 1175.3 952.6 1175.1 950.7 1173.7 949.8 1172.2 950.3L1140.4 954.4 1126.8 936.6 1152 936.2 1134.6 917.9 1156.7 915.1 1176.1 940.6C1177.1 941.8 1179 941.7 1179.9 941.1 1181.1 940.1 1181.3 938.6 1180.4 937.3L1162.6 914 1177.3 912.2 1186 923.6C1187 924.9 1188.5 925.1 1189.7 924.1 1190.6 923.5 1191.2 921.7 1190.2 920.4L1183.4 911.5 1201.7 909C1203.6 908.9 1204.5 907.5 1204 905.9 1203.8 904.7 1202.8 903.4 1201.2 904L1182.7 906.1 1186.7 895.6C1187.2 894.5 1186.7 892.9 1185.6 892.4 1184.6 891.8 1183.4 892.1 1183 892.4 1182.5 892.7 1182.1 893 1182 893.8L1176.5 906.7 1162.1 909 1173.7 882C1173.9 880.5 1173.4 878.9 1172.3 878.4 1171.2 877.9 1170 878.1 1169.2 878.8 1168.8 879.1 1168.8 879.1 1168.7 879.8L1155.9 909.7 1133.9 912.4 1146.4 890.1 1121.6 896.3 1130 875.8 1162.2 871.3C1163.4 871.1 1164.6 870.2 1164.5 868.2 1164.3 867.1 1162.9 866.1 1161.4 865.9L1132.3 870 1138.3 856.7 1152.2 854.8C1153.7 855 1154.7 853.6 1154.6 851.7 1154.3 850.5 1152.9 849.6 1151.4 849.4L1140.6 850.9 1147.5 833.6C1148.4 832.2 1147.5 830.9 1146.1 830 1145.3 829.9 1144.1 830.1 1143.7 830.4 1143.3 830.8 1142.9 831.1 1142.8 831.8L1135.5 848.7 1128.8 839.8C1127.8 838.6 1125.9 838.7 1125 839.3L1125 839.3C1123.7 840.3 1123.5 841.8 1124.5 843.1L1133.3 854.5 1127.3 867.8 1109.8 844.9C1108.8 843.6 1107.3 843.4 1106.1 844.4S1104.6 846.9 1105.6 848.1L1125 873.6 1116.5 894.1 1103.4 872.6 1096.4 896.8 1082.8 879 1095.1 849.4C1095.8 847.6 1094.8 846.3 1093.7 845.8 1092.6 845.3 1091 845.8 1090.1 847.2L1078.9 873.9 1070.5 862.9 1075.7 849.5C1076.7 848.1 1076.1 846.5 1074.3 845.9 1073.2 845.3 1071.6 845.9 1070.7 847.3L1066.6 857.8 1055.3 842.9C1054.3 841.7 1052.8 841.5 1051.5 842.4S1050.1 844.9 1051 846.2L1062.4 861 1051.5 862.6C1050.8 862.5 1050.3 862.8 1049.9 863.1 1049.1 863.8 1049 864.5 1048.9 865.3 1049 867.2 1050.4 868.1 1052 867.6L1066.3 866.1 1075 877.5 1046 880.9C1045.6 881.2 1045.2 881.5 1044.7 881.8 1043.9 882.5 1043.8 883.2 1043.7 884 1043.8 885.9 1045.2 886.9 1046.8 886.3L1078.6 882.2 1092.1 900 1067 900.4 1084.3 918.7 1062.2 921.5 1042.8 896C1041.9 894.8 1039.9 894.9 1039.1 895.5 1037.8 896.5 1037.6 898 1038.6 899.3L1056.1 922.2 1041.7 924.4 1032.9 913C1032 911.7 1030.5 911.5 1029.2 912.5S1027.7 915 1028.7 916.2L1035.5 925.1 1017.3 927.6C1016.5 927.5 1016.1 927.9 1015.7 928.2 1015.3 928.5 1014.7 929.6 1015 930.7 1015.2 931.9 1016.2 933.2 1017.8 932.6ZM1078.9 905.4L1099.4 905.2 1105.1 885.4 1116.1 903.2 1135.8 898.2 1126.1 916.3 1140.1 931.2 1119.5 931.4 1113.8 951.2 1103.2 933.8 1083.2 938.4 1093.2 920.7 1078.9 905.4Z" fill="rgba(255, 199, 2, 0.58)"></path><path d="M973.4 282.6L972.6 299.3 962.9 293.5C962 292.8 960.3 293.1 959.1 294.3 958.7 295.8 958.9 297.4 959.9 298.1L972.5 306 971.6 321.5 946.2 305.3C944.5 304.4 942.9 304.7 942.4 306.1 941.3 307.3 941.5 309 943.2 309.9L971.2 327.7 970.8 341.8 942 356.9 931.4 350.5 933.3 315.1C933 314.7 932.8 314.2 932.6 313.7 932.3 313.2 931.3 312.5 930.6 312.3 928.7 312.1 927.5 313.3 927.8 315L926.1 347.2 913.3 338.9 913.6 322.4C914.1 322.2 913.9 321.7 913.6 321.2 913.1 320.3 912.2 319.6 911 319.6 909.8 319.7 908.6 320.9 908.2 322.3L907.9 335.7 891.8 325.5C890.8 324.8 889.1 325.1 888 326.3 887.5 327.7 887.8 329.4 888.7 330.1L904 339.6 894.1 344.8C892.6 345.5 892.4 347.4 892.9 348.4 893.7 349.8 895.4 350.7 896.8 350L909.5 343.3 922.3 351.6 895.9 365.5C894.5 366.2 894 367.7 894.8 369.1 895.5 370.5 897 371 898.4 370.2L927.7 354.8 939 361.5 937.5 394.2 926.7 400 897.9 381.9C896.7 380.8 894.6 381.3 894.1 382.7 892.9 383.9 893.7 385.3 894.9 386.5L921 402.9 907.3 410.1 894.5 401.8C893.5 401.1 891.4 401.6 890.7 402.6S890.5 405.7 891.7 406.9L901.6 413.1 885.1 421.8C883.7 422.5 883.5 424.4 884.2 425.9 884.7 426.8 886.4 427.7 887.8 427L904.4 418.3 904.1 430.5C904.2 431.7 904.9 433.1 906.8 433.3 908 433.2 909.6 431.8 909.6 430.6L910 415.3 923.7 408.1 922.4 438.9C922.7 440.6 923.4 442 925.4 442.2 926.6 442.2 928.2 440.7 928.2 439.5L929.4 405.1 940.2 399.4 968 416.8 967.1 429.9 937.8 445.3C936.4 446 936 447.5 936.7 448.9 937.5 450.3 939.1 451.2 940.6 450.5L967 436.6 966.6 451.9 953.8 458.6C952.4 459.3 952 460.8 952.7 462.2 953.5 463.6 954.9 464 956.3 463.3L966.2 458.1 965.4 476C965.4 477.2 966.9 478.8 968.1 478.8 969.8 478.5 971.2 477.8 970.9 476.1L972 457.5 982.8 464.4C984.3 464.9 985.9 464.6 986.6 463.6 987.3 462.7 987.3 461.5 986.8 460.5 986.8 460.5 986.6 460.1 985.8 459.8L972.1 450.8 972.5 435.5 1000 452.4C1001.2 453.6 1002.9 453.3 1003.8 451.6 1004 450.9 1004.2 450.2 1003.8 449.2 1003.5 448.7 1003.3 448.3 1003 447.8L972.8 429.3 973.5 416.9 1002.3 401.8 1014.2 409.4 1012.9 442.6C1012.7 444.5 1013.9 445.7 1015.6 445.4 1017 445.8 1018.2 444.6 1018.4 442.7L1019.5 412.6 1032.8 420.7 1032.1 435.5C1032.1 436.7 1033.3 437.9 1034.8 438.3 1036.4 438.1 1037.9 437.3 1037.6 435.6L1038.3 424.4 1052.6 433.2C1053.8 434.4 1055.2 433.6 1056.4 432.4 1056.6 431.7 1056.6 430.5 1056.1 429.5 1056.1 429.5 1055.8 429.1 1055.6 428.6L1040.4 419.1 1052.2 412.9C1053.1 412.4 1054 410.7 1053.3 409.3 1052.5 407.9 1050.6 407.7 1049.7 408.2L1035 415.9 1021.8 407.8 1050.6 392.7C1052 391.9 1052.2 390 1051.4 388.6S1049.3 386.7 1047.8 387.5L1016.2 404.1 1005.3 397.2 1006.8 364.5 1019.1 358 1048.1 376.5C1049.5 377 1051.2 376.7 1052.4 375.5 1052.6 374.7 1052.6 373.6 1052.1 372.6 1051.8 372.1 1051.6 371.7 1050.9 371.4L1024.8 355 1038.4 347.8 1051.7 355.9C1052.7 356.6 1054.4 356.3 1055.5 355.1 1056 353.7 1055.7 352 1054.7 351.3L1044.1 344.9 1059.2 336.9C1060.2 336.4 1060.8 334.3 1060.3 333.3 1059.6 331.9 1057.4 331.2 1056.5 331.7L1041.4 339.7 1042.3 327.7C1042.1 327.2 1041.8 326.8 1041.6 326.3 1041.1 325.4 1040.1 324.7 1039.4 324.4 1037.7 324.7 1036.6 325.9 1036.1 327.4L1035.7 342.6 1022 349.8 1023.3 319C1023.5 317.1 1022.3 316 1021.1 316 1019.2 315.8 1018 317 1017.6 318.4L1016.4 352.8 1004.1 359.3 976.3 341.9 976.8 329 1008.4 312.4C1009.8 311.7 1010.3 310.2 1009.5 308.8 1008.8 307.4 1007.3 307 1005.9 307.7L977.1 322.8 978 307.3 992.6 299.6C993.6 299.1 994.2 297 993.5 295.5 992.8 294.1 990.8 293.9 989.9 294.4L978.1 300.6 978.9 282.7C978.7 282.2 978.7 282.2 978.4 281.8 977.9 280.8 977 280.1 976.2 279.9 974.6 280.2 973.4 281.4 973.4 282.6ZM998.4 362.2L1001.3 364.3 1001.1 367.4 1000 393.9 999.8 397 997 398.5 973.9 410.7 971 412.2 968.4 410.6 945.9 396.5 943.3 394.8 943.2 391.3 944.6 365.2 944.5 361.7 947.3 360.2 970.5 348 973.3 346.5 976.2 348.6 998.4 362.2Z" fill="rgba(255, 199, 2, 0.58)"></path><path d="M37.6 816.6L61.2 802.1 85.1 807.9 68.1 825.8 40.4 826.2C40.4 826.2 40.1 826.3 40.1 826.3 39.5 826.5 39 827.3 38.9 828.1 38.9 829.1 39.8 829.9 40.7 829.6L64.9 829.1 56.7 837.8 46 838.1C46 838.1 45.7 838.2 45.7 838.2 45.1 838.4 44.6 839.2 44.5 840 44.4 841 45.4 841.8 46.3 841.5L53.6 841.5 47.5 847.8C46.9 848.3 47 849.7 47.5 850.2 48.1 851.1 49.4 850.7 49.9 850.2L56 843.9 56.1 851.2C56 852.2 57 853 57.9 852.7 59 852.7 59.8 851.8 59.5 850.9L59.1 840.2 67.4 831.9 67.9 856C67.9 857.1 68.8 857.8 69.8 857.6 70.8 857.6 71.6 856.7 71.3 855.7L70.9 828.1 87.9 810.2 94.9 834.2 81.5 858.6C81.1 859.5 81.4 860.4 82.2 860.9 83 861.3 84 861 84.4 860.2L96.2 838.7 99.6 850.2 94.6 859.3C94.2 860.2 94.4 861.1 95.3 861.6 96.1 862 97 861.7 97.5 860.9L100.9 854.7 103.5 863.7C103.5 864.7 104.6 865.1 105.6 864.8 106.5 864.5 107 863.7 106.7 862.7L104.3 854.4 110.5 857.8C111.3 858.3 112.3 858 112.7 857.1S112.9 855.4 112.1 854.9L103 849.9 99.6 838.4 121.1 850.2C121.9 850.6 122.9 850.3 123.3 849.5 123.8 848.7 123.5 847.7 122.7 847.3L98.3 833.9 91.3 810.3 115.3 816.1 129.3 839.1C129.9 839.9 131 840 131.9 839.7 132.8 839.1 132.8 838.1 132.5 837.1L119.9 816.5 131.5 819.3 137 828.5C137.6 829.4 138.6 829.4 139.6 829.1 140.5 828.5 140.5 827.5 140.3 826.8L136.4 820.7 145 822.7C145.7 822.8 147 822.4 147.1 821.4 147.1 820.3 146.8 819.4 145.8 819.3L137.2 817.3 143.3 813.4C144.2 812.8 144.2 811.8 144.1 811.1 143.5 810.6 142.7 810.1 142.1 810.3 142.1 810.3 141.8 810.4 141.8 810.4L132.6 815.9 121 813 141.6 800.4C142.5 799.8 142.5 798.7 142.3 798.1 141.8 797.6 141 797.1 140.3 797.3 140.3 797.3 140 797.4 140 797.4L116.5 811.9 92.6 806.1 109.6 788.3 137.2 787.8C138.3 787.8 139 786.9 138.8 786 138.8 784.9 137.9 784.1 136.9 784.4L112.7 784.9 121 776.2 131.6 775.9C132.7 775.9 133.5 775 133.2 774 133.2 773 132.3 772.2 131.3 772.5L124.1 772.5 130.2 766.2C130.7 765.7 130.7 764.3 130.2 763.8 129.7 763.3 128.9 763.1 128.3 763.3 128 763.4 127.7 763.5 127.4 763.9L121.3 770.2 121.2 762.9C121.3 761.9 120.4 761.1 119.4 761.4 119.4 761.4 119.1 761.5 119.1 761.5 118.4 761.7 118 762.5 117.9 763.2L118.2 773.9 110 782.6 109.5 758.4C109.5 757.3 108.6 756.6 107.7 756.9 107.7 756.9 107.3 756.9 107.3 756.9 106.7 757.1 106.2 758 106.1 758.7L106.6 786.3 89.6 804.2 82.6 780.5 96 756.1C96.4 755.3 96.1 754.3 95.3 753.9 94.5 753.4 93.5 753.7 93.1 754.5L81.2 775.7 77.8 764.2 82.8 755.1C83.3 754.3 83 753.3 82.2 752.9S80.4 752.7 79.9 753.5L76.5 759.7 74.1 751.4C73.8 750.4 73 750 72 750.3 71.1 750.6 70.6 751.4 70.9 752.3L73.3 760.7 67.1 757.3C66.7 757 66.3 756.8 65.7 757S64.8 757.6 64.6 758C64.1 758.8 64.4 759.8 65.2 760.3L74.3 765.2 77.7 776.7 56.2 765C55.8 764.8 55.4 764.5 54.7 764.7 54.4 764.8 53.9 765.3 53.6 765.7 53.2 766.6 53.5 767.5 54.3 768L78.7 781.3 85.6 805 61.7 799.2 47.2 775.6C46.6 775.1 45.8 774.6 45.2 774.8 45.2 774.8 44.9 774.9 44.9 774.9 44 775.5 44 776.6 44.1 777.2L56.8 797.8 45.2 795 39.7 785.8C39.2 785.2 38.4 784.8 37.7 785 37.7 785 37.4 785.1 37.4 785.1 36.6 785.7 36.5 786.7 36.7 787.4L40.6 793.5 32 791.5C31.7 791.6 31.3 791.4 31 791.5 30.3 791.7 29.8 792.2 29.6 792.9 29.6 794 29.9 794.9 30.9 795L39.5 797 33.4 800.9C32.5 801.5 32.5 802.5 32.6 803.1 33.2 804 34.3 804.1 34.9 803.9L44.1 798.4 55.7 801.3 35.1 813.9C34.2 814.5 34.2 815.5 34.4 816.2 35.6 816.9 36.8 817.2 37.6 816.6Z" fill="rgba(255, 199, 2, 0.58)"></path><path d="M618.2 937.4L644.8 937.5 651.5 944.5 642.5 944.5C641.6 944.2 641 945.1 640.7 946 640.8 946.8 641.6 947.7 642.4 947.5L654.7 947.9 661.5 954.6 652.2 956.9 641.6 950.4C641.6 950.4 641.2 950.3 641.2 950.3 640.6 950.2 639.8 950.6 639.3 951.2 639 952.1 639.1 952.9 640 953.5L647.7 958 638.5 960.3 615.5 947C615.5 947 615.3 946.6 615.3 946.6 614.6 946.4 613.8 946.9 613.3 947.4 612.7 948.3 613.1 949.4 614.1 949.7L634 961.5 622.7 964.6 613.8 959.3C613.8 959.3 613.8 959.3 613.5 959.2 612.9 959.1 612.1 959.2 611.6 959.7 611.4 960.7 611.4 961.8 612.3 962.4L618.3 965.7 610 968C609 968 608.7 969 608.9 969.7 608.9 970.8 609.8 971.3 610.9 971L619.1 969.1 615.4 974.7C615.2 975.6 615.2 976.7 616.2 976.9 617.1 977.5 617.8 977.4 618.4 976.5L623.6 967.6 634.8 964.8 622.9 985C622.4 985.6 622.8 986.7 623.7 987.3 624.3 987.5 625.4 987.4 626 986.6L639.3 963.6 648.5 961.4 644 969.1C643.4 970 643.8 970.8 644.7 971.4 645.3 971.9 646.4 971.5 646.9 971L653 960.2 662.4 957.6 659.8 966.9 649.1 973C648.3 973.4 648 974.4 648.5 975.2 648.6 975.9 649.9 976.3 650.8 975.8L658.5 971.4 656 980.7 632.6 993.6C631.8 994.1 631.6 995.1 632 995.9 632.5 996.7 633.5 997 634.3 996.5L654.7 985.2 651.7 996.1 642.6 1001.2C641.8 1001.7 641.5 1002.7 642 1003.5 642.5 1004.3 643.4 1004.6 644.3 1004.1L650.3 1001 648.1 1009C647.8 1010 648.3 1010.8 649.3 1011 650.2 1011.3 651 1010.9 651.3 1009.9L653.5 1001.9 656.8 1007.6C657.2 1008.4 658.2 1008.7 659 1008.2S660.1 1006.8 659.7 1006L654.8 997.4 657.9 986.1 669.3 1006.2C669.7 1007.1 670.7 1007.3 671.5 1006.9 672.3 1006.4 672.6 1005.4 672.1 1004.6L659.2 981.6 661.8 972.3 666.2 980.1C666.6 980.9 667.6 981.2 668.4 980.7 669.2 980.3 669.5 979.3 669 978.5L663 967.8 665.5 958.8 672 965.5 672 977.9C672.1 978.7 672.9 979.6 673.6 979.4 674.7 979.4 675.2 978.8 675.4 977.9L675.5 968.9 682 975.5 681.8 1002.1C681.9 1003.2 682.4 1003.7 683.4 1003.9 684.5 1003.9 685.1 1003 685.2 1002.4L685.5 978.9 693.6 987.4 693.5 997.4C693.3 998.4 694.1 999 695.1 999.2 695.8 999.1 696.7 998.3 696.7 997.3L696.8 990.7 702.8 996.5C703.2 997.4 704.3 997.3 705.2 996.5 705.7 996 705.6 994.9 705.1 994.4L699.2 988.3 706.1 988.4C707.1 988.4 707.7 987.5 707.6 986.8 707.8 985.8 707.3 985.3 706.6 985.1 706.3 985.1 706.3 985.1 706 985L696 984.9 687.9 976.5 711.1 976.7C712 977 712.6 976.1 712.9 975.1 712.7 974.4 712.2 973.9 711.5 973.7 711.2 973.6 711.2 973.6 711.2 973.6L684.4 973.1 677.9 966.4 686.9 966.5C688 966.5 688.5 965.9 688.7 964.9 688.6 964.2 688.1 963.4 687.5 963.2 687.2 963.1 687.2 963.1 686.8 963L674.4 963 667.9 956.4 676.9 954 687.6 960.1C688.5 960.7 689.7 960.4 690.2 959.8 690.4 958.8 690.4 957.8 689.4 957.5L681.7 952.9 690.7 950.3 713.9 964C714.5 964.5 715.6 964.1 716.1 963.6 716.4 962.6 716.3 961.5 715.4 961L695.5 949.2 706.7 946.4 715.3 951.6C716.2 952.2 717.3 951.8 717.6 950.8 718.1 950.3 718 949.2 717.1 948.6L711.2 945.2 719.4 943C720.1 942.9 720.7 942 720.7 941 720.4 940.5 719.9 940 719.2 939.9 719.2 939.9 718.9 939.8 718.6 939.7L710.4 941.9 713.8 935.9C714.3 935.4 713.9 934.2 713.3 933.7 713 933.6 713 933.6 713 933.6 712 933.4 711.2 933.8 711 934.5L705.9 943.1 694.6 946.2 706.5 925.9C706.8 925 706.6 924.2 705.7 923.7 705.7 923.7 705.4 923.6 705.4 923.6 704.8 923.4 704.1 923.5 703.5 924.4L689.8 947.3 680.9 949.6 685.5 941.9C685.7 940.9 685.7 939.9 684.7 939.6 684.8 939.3 684.5 939.2 684.5 939.2 683.8 939 683 939.5 682.5 940L676.4 950.8 667.1 953 669.6 944.1 680.3 938C681.1 937.6 681.5 936.3 681 935.5 680.5 935 679.5 934.7 678.8 934.8L670.9 939.6 673.5 930.2 696.5 917.3C697.3 916.8 697.5 915.8 697.1 915 696.6 914.2 695.7 913.9 694.8 914.4L674.7 925.8 677.8 914.5 686.5 909.6C687.3 909.2 687.6 908.2 687.1 907.4S685.7 906.3 684.8 906.8L679.1 910 681.3 902C681.6 901 681.1 900.2 680.2 899.9 679.2 899.7 678.4 900.1 678.1 901.1L675.9 909.1 672.3 903.3C672.1 902.9 671.9 902.5 671.5 902.4 671.2 902.3 670.5 902.4 670.1 902.7 669.3 903.1 669 904.1 669.4 904.9L674.6 913.6 671.5 924.9 659.8 904.7C659.6 904.2 659.4 903.8 659 903.7 658.7 903.7 658 903.8 657.6 904 656.8 904.5 656.5 905.5 657 906.3L670.3 929.4 667.7 938.7 663.4 930.5C663.1 930.1 662.5 930 662.2 929.9 661.8 929.8 661.5 929.7 661.1 929.9 660.3 930.4 659.9 931.7 660.5 932.2L666.4 943.2 663.9 952.2 657.1 945.4 657.5 933.1C657.3 932.3 656.9 931.5 656.2 931.3 655.9 931.2 655.9 931.2 655.8 931.6 654.8 931.3 653.9 932.1 654 933.1L653.9 942.1 647.1 935.4 647.7 908.5C647.5 907.8 647 907.3 646.3 907.1 646 907 646 907 646 907 645 907.1 644.1 907.6 644.2 908.6L643.9 932.1 635.9 923.6 635.9 913.6C635.8 912.5 635.3 912 634.6 911.8 634.6 911.8 634.3 911.7 634.3 911.7 633.3 911.8 632.7 912.7 632.5 913.3L632.6 920.3 626.7 914.1C626.4 914 626.1 914 625.8 913.9 625.5 913.8 624.7 913.9 624.3 914.1 623.7 915 623.5 916 624.3 916.6L630.2 922.7 623.4 922.5C622.3 922.6 621.7 923.5 621.5 924.1 621.6 925.2 622.5 925.7 623.4 926L633.5 926 641.6 934.2 618.5 934C617.4 934 616.5 934.8 616.6 935.5 616.7 936.6 617.2 937.4 618.2 937.4Z" fill="rgba(255, 199, 2, 0.58)"></path><path d="M1058.5 109.4L1043.4 93.2 1044.3 73.5 1060.9 84 1065.6 105.7C1065.6 105.7 1065.7 105.9 1065.7 105.9 1066 106.4 1066.7 106.6 1067.3 106.6 1068.1 106.5 1068.6 105.6 1068.2 104.9L1064.1 86 1072.1 91.1 1074.1 99.4C1074.1 99.4 1074.2 99.7 1074.2 99.7 1074.5 100.2 1075.2 100.4 1075.8 100.4 1076.6 100.2 1077.1 99.4 1076.7 98.7L1075.5 93 1081.4 96.8C1081.9 97.2 1083 96.9 1083.3 96.4 1083.9 95.8 1083.4 94.9 1082.9 94.5L1077 90.7 1082.7 89.5C1083.6 89.4 1084 88.5 1083.7 87.8 1083.5 87 1082.7 86.5 1082 86.9L1073.7 88.8 1065.8 83.6 1084.7 79.5C1085.5 79.3 1086 78.5 1085.6 77.8 1085.5 76.9 1084.7 76.5 1083.9 76.8L1062.3 81.5 1045.7 71 1063.4 61.7 1084.6 68.4C1085.3 68.6 1086.1 68.2 1086.3 67.5 1086.5 66.8 1086.1 66.1 1085.4 65.8L1066.7 60 1075.2 55.5 1083.1 58C1083.9 58.2 1084.6 57.9 1084.8 57.1 1085 56.4 1084.6 55.7 1083.9 55.5L1078.5 53.8 1085.1 50.3C1086 50.2 1086.1 49.3 1085.7 48.5 1085.3 47.8 1084.6 47.6 1083.9 48L1077.8 51.2 1079.5 45.8C1079.7 45.1 1079.3 44.4 1078.6 44.1S1077.2 44.3 1076.9 45L1074.5 52.9 1065.9 57.4 1071.8 38.7C1072 37.9 1071.7 37.2 1071 37 1070.2 36.8 1069.5 37.1 1069.3 37.9L1062.6 59.1 1045.1 68.2 1046 48.5 1061.8 33.9C1062.4 33.3 1062.3 32.5 1061.9 31.8 1061.3 31.2 1060.5 31.3 1059.8 31.7L1045.6 44.8 1046 35.3 1052.3 29.6C1052.9 29 1052.8 28.1 1052.4 27.4 1051.8 26.8 1051 27 1050.5 27.2L1046.3 31.2 1046.5 24.2C1046.5 23.6 1046 22.6 1045.2 22.8 1044.4 22.9 1043.6 23.3 1043.8 24.1L1043.5 31.2 1039.5 26.9C1038.9 26.3 1038.1 26.5 1037.6 26.7 1037.3 27.2 1037 27.9 1037.3 28.4 1037.3 28.4 1037.4 28.6 1037.4 28.6L1043.1 35 1042.7 44.5 1029.6 30.3C1029 29.7 1028.1 29.9 1027.7 30.1 1027.3 30.6 1027.1 31.3 1027.3 31.8 1027.3 31.8 1027.5 32 1027.5 32L1042.5 48.2 1041.7 67.9 1025 57.4 1020.4 35.7C1020.2 34.9 1019.4 34.4 1018.7 34.8 1017.8 34.9 1017.4 35.8 1017.8 36.5L1021.9 55.4 1013.8 50.3 1011.9 42C1011.8 41.1 1010.9 40.7 1010.2 41 1009.4 41.2 1008.9 42 1009.3 42.7L1010.4 48.4 1004.5 44.6C1004.1 44.3 1003 44.5 1002.6 45 1002.3 45.5 1002.3 46.1 1002.5 46.5 1002.7 46.8 1002.8 47 1003.2 47.1L1009.1 51 1003.4 52.1C1002.5 52.3 1002.1 53.1 1002.4 53.8 1002.4 53.8 1002.6 54.1 1002.6 54.1 1002.8 54.5 1003.5 54.8 1004.1 54.7L1012.4 52.8 1020.5 57.9 1001.6 62.1C1000.8 62.2 1000.3 63 1000.7 63.8 1000.7 63.8 1000.8 64 1000.8 64 1001.1 64.5 1001.8 64.7 1002.4 64.7L1024 60 1040.7 70.6 1023.2 79.7 1001.9 73C1001.2 72.8 1000.5 73.2 1000.3 73.9 1000.1 74.6 1000.4 75.3 1001.1 75.6L1019.6 81.6 1011.1 86 1003.2 83.5C1002.5 83.3 1001.8 83.7 1001.5 84.4S1001.7 85.8 1002.4 86L1007.8 87.7 1001.7 90.9C1000.9 91.3 1000.7 92 1001.1 92.7 1001.5 93.4 1002.2 93.7 1002.9 93.3L1009 90.1 1007.3 95.5C1007.2 95.8 1007.1 96.2 1007.4 96.7S1008 97.3 1008.3 97.4C1009 97.6 1009.8 97.2 1010 96.5L1012.5 88.6 1021 84.2 1015.1 102.9C1015 103.2 1014.9 103.6 1015.1 104.1 1015.2 104.3 1015.7 104.6 1016.1 104.8 1016.8 105 1017.5 104.6 1017.7 103.9L1024.4 82.7 1041.9 73.5 1041.1 93.2 1024.9 108.3C1024.5 108.8 1024.3 109.5 1024.5 110 1024.5 110 1024.7 110.2 1024.7 110.2 1025.3 110.8 1026.1 110.7 1026.6 110.4L1040.8 97.3 1040.3 106.8 1034 112.5C1033.6 113 1033.4 113.8 1033.7 114.2 1033.7 114.2 1033.8 114.5 1033.8 114.5 1034.4 115 1035.2 114.9 1035.7 114.7L1039.9 110.7 1039.7 117.7C1039.8 117.9 1039.7 118.3 1039.8 118.5 1040.1 119 1040.6 119.4 1041.2 119.3 1042 119.2 1042.7 118.8 1042.6 118L1042.8 111 1046.8 115.2C1047.4 115.8 1048.2 115.6 1048.7 115.4 1049.3 114.8 1049.2 114 1048.9 113.5L1043.2 107.1 1043.6 97.6 1056.8 111.8C1057.4 112.4 1058.2 112.2 1058.7 112 1059 110.9 1059.1 110 1058.5 109.4Z" fill="rgba(255, 199, 2, 0.58)"></path><path d="M686.5 670.6L728 655.6 739.1 660.5 741.6 687.6 731.5 694.9 688 687.1C687.4 687.2 687.4 687.2 686.9 687.2 685.9 687.3 684.8 687.9 684.5 689.6 684.6 691.2 685.2 692.2 686.9 692.6L725 699.3 709.4 710.3 692.5 707.6C692.5 707.6 692 707.6 692 707.6 690.9 707.7 689.9 708.4 689.5 710 689.1 711.1 690.3 712.6 691.9 713L702.8 715.2 691.2 723.2C690.2 723.9 689.8 725.5 690.5 727S693.3 728.4 694.9 727.7L705.9 719.8 704.2 730.6C703.8 732.3 705.1 733.8 706.7 734.1 707.8 734 709.3 733.4 709.7 731.7L712.4 714.9 728.6 703.8 721.9 741.9C721.5 743.5 722.7 745 723.8 745.5 725.4 745.3 726.9 744.6 727.3 743L734.6 699.5 745.2 692.1 769.2 703.3 770.4 716.1 742.4 750.2C741.5 751.4 741.6 752.9 742.8 753.9S745.5 754.7 746.5 753.6L771.1 723.5 772.8 743.2 762.2 755.9C761.2 757.1 761.4 758.6 762.6 760.1S765.3 761 766.3 759.8L773.5 750.6 774.8 764.9C775 766.5 776.6 767.4 778.2 767.3 779.8 767.2 780.8 766 780.7 764.4L779.4 750.1 788 757.3C789.3 758.8 790.8 758.7 791.8 757 792.7 755.8 792.6 754.2 791.4 753.3L778.7 742.6 776.9 723 806.5 748.1C807.7 749.1 809.8 748.9 810.7 747.8S811.6 745 810.4 744L776.2 715.5 775.1 702.8 797.2 687.4 808.4 692.8 823.4 734.3C824.1 735.8 825.8 736.2 827.4 736.1 828.9 735.4 829.3 733.8 829.1 732.2L815.7 695.9 833 704 838.8 720.1C839.4 721.6 841.1 722 842.7 721.8 843.7 721.2 844.6 719.5 843.9 718L840.3 707.6 853.2 713.4C854.3 713.8 855.8 713.2 856.8 712 857.2 710.4 856.5 708.8 855.4 708.4L842.5 702.6 853.4 698.4C854.4 697.8 855.3 696.1 854.7 695 854.6 693.5 853.5 693 851.9 693.2 851.9 693.2 851.3 693.2 851.3 693.2L835.2 699 817.9 690.9 854.2 677.4C855.7 676.7 856.7 675.6 856 674 855.3 672.5 854.2 672.1 853.2 672.2 852.6 672.2 852.6 672.2 852.6 672.2L810.7 687.8 799.5 682.4 797 655.3 807.1 648.5 851.1 655.7C852.3 656.2 853.8 655 854.2 653.9 854.6 652.2 853.4 650.7 851.7 650.3L813.6 643.6 829.2 632.6 846.1 635.3C847.7 635.7 849.3 635 849.1 633.4 849.5 631.8 848.3 630.3 847.2 629.9L835.8 628.2 847.4 620.2C848.4 619 848.8 617.4 848.1 615.9 847.5 615.4 846.4 614.9 845.3 615 844.8 615.1 844.8 615.1 844.3 615.7L832.7 623.7 834.4 612.3C834.8 610.6 833.6 609.7 832.5 609.2 832 609.3 832 609.3 831.4 609.3 830.4 609.4 829.3 610.1 828.9 611.2L826.1 628 810.5 639.1 817.3 601C817.1 599.4 816.5 597.8 814.9 598 814.3 597.5 814.3 597.5 813.8 597.5 812.7 597.6 811.7 598.8 811.3 599.9L804 643.9 793.9 650.7 769.4 639.6 768.3 627.4 796.8 593.2C797.7 592 797.5 589.9 796.4 588.9S793.1 588.2 792.1 589.3L767.5 619.4 765.8 600.3 776.4 587C777.4 585.8 777.2 584.2 776 583.3 774.9 582.3 773.3 582.5 772.3 583.6L765.1 592.3 763.8 578C763.7 576.9 762.5 575.4 760.9 575.6 759.3 575.7 757.8 577.4 757.9 578.5L759.2 592.8 750.6 585.6C750 585.1 749.4 584.6 748.9 584.7 747.8 584.8 747.3 585.3 746.8 585.9 745.9 587.1 746 588.7 747.2 589.6L760 600.8 761.7 619.9 732.1 594.8C731.5 594.3 731 594.3 729.9 594.4 729.4 594.5 728.9 594.5 728.4 595.1 727.4 596.3 727.6 598.4 728.8 599.3L762.4 627.9 763.5 640.1 741.9 655.5 730.2 650.6 715.1 608.6C714.5 607.6 713.4 606.6 712.3 606.7 711.8 606.8 711.8 606.8 711.8 607.3 710.2 607.4 709.3 609.1 710 610.7L723.4 646.9 705.6 638.9 699.8 622.8C699.2 621.8 698.1 621.4 697 621.5 697 621.5 696.5 621.5 696.5 621.5 694.9 621.7 694 623.4 694.7 624.9L698.9 635.8 686 630C685.4 629.5 684.9 629.5 684.4 629.6 683.3 629.7 682.3 630.3 682.4 630.9 681.4 632.5 682.1 634.1 683.3 635.1L696.1 640.9 685.7 644.5C684.2 645.1 683.3 646.8 683.9 648.4 684.6 649.4 686.3 650.3 687.3 649.7L703.4 643.9 720.7 652 684.4 665.5C682.9 666.1 682.5 667.8 682.6 669.4 683.3 670.4 684.9 671.3 686.5 670.6ZM747.1 683.9L745.3 663.2 745 660 747.5 658.2 764.1 646.5 767.1 644.6 769.9 646 788.4 654.5 791.2 655.8 791.5 659 793.3 679.7 793.6 682.9 791.1 684.7 774.5 696.4 772 698.2 768.7 696.9 750.2 688.4 747.4 687.1 747.1 683.9Z" fill="rgba(255, 199, 2, 0.58)"></path><path d="M244.2 150.9L243.2 140.5 249.7 143.2C250.3 143.5 251.3 143.2 252 142.3 252.1 141.4 251.8 140.4 251.1 140L242.6 136.4 241.7 126.7 258.9 134.3C260 134.7 261 134.4 261.2 133.5 261.8 132.6 261.5 131.6 260.3 131.2L241.3 122.8 240.3 114.1 256.7 102 263.8 105 266 127C266.2 127.3 266.4 127.6 266.6 127.8 266.8 128.1 267.4 128.5 267.9 128.5 269.1 128.5 269.7 127.6 269.4 126.6L267.4 106.5 276.1 110.5 277.4 120.7C277.2 120.9 277.4 121.2 277.6 121.4 278 122 278.6 122.3 279.4 122.2 280.1 122 280.7 121.2 280.8 120.3L279.7 112 290.7 116.7C291.3 117.1 292.3 116.8 292.9 115.9 293.1 115 292.8 114 292.1 113.6L281.8 109.2 287.4 105C288.3 104.5 288.2 103.3 287.8 102.7 287.2 101.9 286.1 101.5 285.3 102.1L278 107.4 269.3 103.5 284.4 92.4C285.2 91.8 285.3 90.9 284.7 90.1 284.1 89.3 283.2 89.1 282.4 89.7L265.7 102 258.1 98.9 256 78.5 262.1 74 281.6 82.5C282.5 83.1 283.7 82.5 283.9 81.6 284.5 80.8 283.9 79.9 283 79.3L265.4 71.6 273.2 65.9 281.9 69.9C282.5 70.2 283.8 69.7 284.1 69S283.9 67.1 283.1 66.5L276.4 63.5 285.8 56.6C286.6 56 286.5 54.8 285.9 54 285.5 53.5 284.4 53.1 283.6 53.7L274.2 60.6 273.2 53C273.1 52.3 272.5 51.5 271.3 51.6 270.6 51.7 269.7 52.7 269.8 53.5L271 63 263.2 68.7 261.1 49.5C260.8 48.5 260.2 47.7 259 47.8 258.3 47.9 257.4 49 257.5 49.7L260 71 253.8 75.6 235 67.5 234.4 59.3 251 47C251.8 46.4 252 45.5 251.4 44.7 250.8 43.9 249.6 43.5 248.8 44.1L233.8 55.1 232.6 45.7 239.9 40.3C240.7 39.7 240.8 38.8 240.2 38 239.6 37.2 238.7 37 237.9 37.6L232.3 41.8 231.1 30.6C231 29.9 229.9 29 229.2 29.2 228.2 29.5 227.4 30.1 227.7 31.1L228.8 42.7 221.4 39.4C220.5 39.3 219.5 39.6 219.1 40.3 218.8 40.9 218.9 41.7 219.3 42.2 219.3 42.2 219.5 42.5 220 42.5L229.3 46.8 230.5 56.3 211.9 48.5C211.1 47.8 210.1 48.2 209.6 49.3 209.6 49.8 209.5 50.2 209.9 50.8 210.1 51 210.3 51.3 210.5 51.6L230.9 60.2 231.6 67.9 215.2 80 207.2 76.3 204.9 55.7C204.8 54.5 203.9 53.9 202.9 54.2 202 54.1 201.4 55 201.4 56.2L203.6 74.8 194.6 71.1 193.7 61.9C193.5 61.1 192.7 60.5 191.7 60.4 190.7 60.7 189.9 61.3 190.3 62.3L190.9 69.3 181.2 65.2C180.4 64.6 179.6 65.2 179 66.1 178.9 66.5 179 67.3 179.4 67.8 179.4 67.8 179.6 68.1 179.8 68.3L190.1 72.8 183.4 77.7C182.8 78.1 182.4 79.2 183 80 183.6 80.8 184.8 80.8 185.3 80.4L193.7 74.3 202.6 78 186.3 90.1C185.4 90.7 185.5 91.9 186.1 92.7S187.6 93.6 188.4 93L206.4 79.8 213.8 83.1 215.9 103.4 208.9 108.6 189.3 99.8C188.4 99.7 187.4 100 186.8 100.9 186.7 101.3 186.8 102.1 187.2 102.6 187.4 102.9 187.6 103.2 188.1 103.2L205.7 110.9 197.9 116.7 189 112.9C188.3 112.6 187.3 112.9 186.7 113.7 186.6 114.7 186.9 115.7 187.5 116L194.7 119 186.1 125.3C185.6 125.7 185.4 127.1 185.8 127.7 186.4 128.5 187.8 128.7 188.3 128.3L196.9 122 197.4 129.5C197.6 129.7 197.8 130 198 130.3 198.4 130.8 199.1 131.1 199.5 131.2 200.5 130.9 201.1 130 201.3 129.1L200.1 119.6 207.9 113.9 210 133C210 134.2 210.9 134.8 211.6 134.7 212.8 134.7 213.4 133.8 213.6 132.9L211.1 111.5 218.1 106.4 236.9 114.5 237.8 122.5 219.8 135.7C219 136.3 218.9 137.3 219.5 138.1 220.1 138.9 221 139 221.8 138.4L238.2 126.4 239.1 136.1 230.8 142.2C230.2 142.6 230 144 230.6 144.8 231.2 145.6 232.4 145.5 232.9 145.1L239.6 140.2 240.8 151.3C241 151.6 241 151.6 241.2 151.9 241.6 152.4 242.3 152.7 242.7 152.8 243.7 152.5 244.3 151.6 244.2 150.9ZM221.3 104L219.3 103 219.2 101.1 217.4 84.6 217.2 82.6 218.8 81.5 232 71.8 233.6 70.6 235.4 71.3 250.6 78 252.4 78.7 252.7 80.9 254.3 97.1 254.7 99.3 253.1 100.5 239.9 110.2 238.3 111.4 236.3 110.4 221.3 104Z" fill="rgba(255, 199, 2, 0.58)"></path><path d="M142.7 486.4L140.8 502.7 132.7 497.1C131.9 496.5 130.4 496.6 129.3 497.6 128.9 498.9 129 500.4 130.3 500.8L140.2 508.1 139.3 520.8 118.6 505.6C117.4 505.1 115.9 505.3 115.2 506.1 114.3 507.5 114.5 509 115.7 509.5L138.7 526.2 136.8 545.5 120.2 530.5 120.6 552.9 104.8 541.7 107.2 513.3C107.7 513.2 107.5 512.7 107.3 512.3 106.9 511.5 106.1 510.8 105 510.8 104 510.7 102.9 511.7 102.5 513L100.3 538.6 90.1 530.9 91.2 518.6C91.4 518 91.2 517.6 91 517.1 90.8 516.7 90 516.1 89 516 87.9 516 86.9 517 86.8 518L85.6 527.8 72.2 518.5C71.2 517.5 69.9 518 68.8 519 68.2 519.9 68.3 521.3 69.7 522.2L82.8 531.7 73.9 535.7C72.6 536.3 72.3 538 72.7 538.8 73.3 540.1 74.5 540.6 75.8 540L87.3 534.8 97.4 542.4 74.5 552.9C73.2 553.5 72.7 554.7 73.3 556 73.7 556.8 75.1 557.7 76.4 557.1L101.9 545.5 117.8 556.7 96.8 563.7 116.1 574.4 98.3 582.6 75.5 566.3C74 565.4 72.8 566 72.1 566.8 71.4 567.6 71.6 569.1 72.6 570.1L93.6 584.7 82.1 589.9 71.7 582.8C70.7 581.8 69.2 581.9 68.4 583.4 67.7 584.2 67.9 585.6 69.3 586.5L77 592.2 62.2 599C60.9 599.6 60.4 600.8 61 602.1S62.8 603.8 64.1 603.2L78.9 596.5 78.2 606.1C77.9 607.7 78.9 608.8 80 608.8 81.6 609.1 82.7 608.1 82.5 606.6L84 594.2 95.5 588.9 92.7 614.3C92.9 615.8 93.9 616.9 94.9 616.9 96.6 617.2 97.7 616.2 97.5 614.7L100.2 586.8 118 578.7 113.5 600.2 132.5 589 130.5 608.4 105 620C103.8 620.6 103.5 622.2 103.9 623.1 104.5 624.3 105.7 624.8 107 624.2L130.3 613.6 129 626.5 117.6 631.7C116.3 632.3 115.8 633.5 116.4 634.8 116.8 635.7 118.2 636.5 119.5 636L128.4 631.9 127 647.9C126.7 649.6 127.7 650.7 129.2 650.5 130.2 650.6 131.5 650 131.4 648.5L133.2 632.3 141.3 637.8C142.2 638.5 143.6 638.3 144.3 637.5 144.9 636.7 145 635.6 144.8 635.2 144.6 634.8 144.4 634.4 143.8 634.1L133.8 626.9 134.7 614.2 155.4 629.3C156.7 629.8 158.1 629.6 158.8 628.8 159.5 628 159.5 627 159.1 626.1 158.9 625.7 158.9 625.7 158.3 625.5L135.3 608.8 137.3 589.4 153.8 604.4 153.4 582.1 169.3 593.3 166.8 621.6C166.8 622.6 167.3 623.9 169 624.2 170 624.2 171.1 623.2 171.6 622L173.8 596.4 183.9 604.1 182.9 616.3C182.4 617.6 183.4 618.7 185.1 618.9 186.1 619 187.2 618 187.6 616.7L188.4 607.1 201.9 616.4C202.9 617.5 204.1 616.9 205.2 615.9 205.4 615.3 205.5 614.2 205.3 613.8 205.1 613.4 204.9 613 204.3 612.7L191.3 603.3 200.2 599.2C201.5 598.6 201.7 597 201.3 596.1L201.3 596.1C200.8 594.9 199.5 594.4 198.3 595L186.8 600.2 176.6 592.5 199.6 582.1C200.8 581.5 201.3 580.3 200.7 579S198.9 577.2 197.6 577.8L172.1 589.4 156.3 578.2 177.2 571.2 157.9 560.5 175.8 552.4 198.6 568.7C200 569.6 201.3 569 201.9 568.2 202.6 567.4 202.4 565.9 201.4 564.8L180.9 550.1 191.9 545 202.3 552.1C203.3 553.2 204.8 553 205.7 551.6 206.3 550.8 206.2 549.3 205.2 548.2L197 542.7 211.9 535.9C213.2 535.4 213.6 534.1 213 532.9S211.2 531.1 210 531.7L195.1 538.5 195.9 528.9C196.1 528.3 195.9 527.8 195.7 527.4 195.3 526.6 194.7 526.3 194.1 526.1 192.4 525.8 191.3 526.8 191.5 528.3L190 540.8 178.5 546 181.3 520.6C181.1 520.2 180.9 519.8 180.7 519.4 180.4 518.5 179.7 518.3 179.1 518 177.5 517.8 176.4 518.8 176.5 520.3L173.9 548.1 156 556.3 160.6 534.7 141.6 545.9 143.5 526.6 169 515C170.3 514.4 170.5 512.7 170.2 511.9 169.6 510.6 168.3 510.1 167.1 510.7L144.1 521.2 145 508.5 156.5 503.2C157.8 502.7 158.2 501.4 157.6 500.1S155.8 498.4 154.5 499L145.6 503 147 487C147.3 486.4 147.1 486 146.9 485.5 146.7 485.1 145.9 484.5 144.8 484.4 143.8 484.4 142.5 485 142.7 486.4ZM154 543.9L150.2 561.5 165.9 570.2 148.6 576 149 593.8 135.4 582 120.1 591.1 123.9 573.5 108.1 564.7 125 559.1 125 541.1 138.2 553.1 154 543.9Z" fill="rgba(255, 199, 2, 0.58)"></path><path d="M446.3 576.2L479.9 604.8 481.2 616.9 458.9 632.5 447.5 627.4 432.7 585.7C432.4 585.3 432.4 585.3 432.1 584.8 431.5 583.9 430.5 583.4 428.9 583.9 427.5 584.8 427 585.8 427.5 587.4L440.5 623.8 423.2 615.8 417.2 599.8C417.2 599.8 416.9 599.4 416.9 599.4 416.3 598.5 415.2 597.9 413.6 598.4 412.5 598.6 411.8 600.4 412.2 602L415.7 612.5 403 606.5C402 605.9 400.3 606.4 399.3 607.7S399.5 610.8 400.9 611.8L413.3 617.5 403 621.4C401.4 621.9 400.7 623.7 401.2 625.3 401.8 626.2 403.2 627.2 404.8 626.7L420.8 620.7 438.4 629.2 402 642.3C400.4 642.8 399.7 644.6 399.9 645.7 400.8 647 402.1 648.1 403.7 647.6L445.1 632.3 456.8 637.9 459 664.3 448.5 671.6 405 664.3C403.5 664 402.2 664.9 401.9 666.4S402.6 669.2 404.1 669.5L442.4 675.9 426.2 687.2 409.9 684.3C408.4 684 407.1 684.9 406.4 686.7S407 689.5 408.5 689.8L420.1 691.5 408.3 699.7C406.9 700.6 407 702.5 407.9 703.9 408.8 705.2 410.3 705.4 411.6 704.5L423.4 696.3 421.4 707.4C420.7 709.2 421.7 710.5 423.6 710.5 425.1 710.7 426.4 709.8 426.6 708.3L429.5 692 445.7 680.7 438.6 718.9C438.3 720.4 439.5 722.1 441 722.4S443.8 721.7 444.1 720.2L451.9 676.4 462.3 669.1 486.7 680.7 487.6 693.1 459 726.7C458 728.1 458.5 729.7 459.4 731 460.7 732 462.4 731.5 463.7 730.6L488.5 700.9 490.1 720 479 733C478 734.3 478.4 735.9 479.3 737.2 480.4 737.8 482.3 737.8 483.3 736.4L490.5 728.1 491.9 742.1C492.1 743.3 493.4 744.3 494.9 744.6 496.5 744.1 497.5 742.8 497.3 741.6L496 727.6 505 734.9C506.1 735.5 508 735.4 508.6 734.4 509.9 733.5 509.7 732.3 508.8 731 508.8 731 508.5 730.5 508.5 730.5L495.5 719.4 493.9 700.4 523.6 725.2C525 726.2 526.5 726.5 527.5 725.1 528.5 723.8 528.3 722.6 527.7 721.7 527.4 721.3 527.4 721.3 527.4 721.3L493 692.6 492.2 680.1 514.5 664.6 525.4 670 540.9 711.8C541.1 713 542.9 713.7 544.1 713.5 545.7 713 546.4 711.2 545.9 709.6L532.9 673.2 550.2 681.3 556.2 697.3C556.6 698.9 558 699.9 559.3 699 560.9 698.5 561.6 696.7 561.5 695.5L557.2 684.8 569.9 690.9C571.4 691.2 573 690.7 574 689.3 574.2 688.6 574 687.4 573.4 686.5 573.1 686.1 573.1 686.1 572.3 686L559.6 679.9 570.3 675.7C572 675.2 572.2 673.7 572.1 672.5 571.7 672.1 571.7 672.1 571.4 671.6 570.8 670.8 569.8 670.2 568.6 670.4L552.6 676.3 535.3 668.3 571.7 655.2C573 654.3 574 652.9 573.1 651.6 573.2 650.9 573.2 650.9 572.9 650.4 572.3 649.6 570.8 649.3 569.6 649.5L527.8 665 516.9 659.6 514.4 632.8 524.4 625.7 568.3 633.5C569.7 633.8 571.5 632.6 571.8 631.1S570.8 627.9 569.3 627.6L531 621.2 546.7 610.2 563.5 612.8C565 613 566.3 612.1 566.6 610.6 566.8 609.2 565.9 607.8 564.4 607.6L553.3 605.6 565.1 597.4C566 596.7 566.7 595 565.8 593.6 564.9 592.3 562.6 591.9 561.8 592.5L549.9 600.8 551.9 589.6C552.1 588.9 552.2 588.2 551.9 587.7 551.3 586.8 550.5 586.7 549.8 586.6 548.3 586.3 547 587.2 546.7 588.7L543.4 605.4 527.6 616.4 534.8 578.2C534.9 577.4 534.6 577 534 576.1 533.7 575.7 533.4 575.2 532.7 575.1 531.2 574.9 529.4 576.1 529.2 577.6L521.1 620.9 511 628 487 616.8 485.4 604.2 514.4 570.3C514.9 569.3 515.2 567.8 514.6 566.9 514.3 566.5 514.3 566.5 513.9 566.8 512.9 565.5 511 565.5 510 566.9L485.2 596.6 483.3 577.1 494.4 564.1C495 563.1 494.8 561.9 494.2 561 494.2 561 493.9 560.6 493.9 560.6 493 559.3 491.1 559.3 490.1 560.6L482.7 569.7 481.4 555.7C481.5 554.9 481.2 554.5 480.9 554 480.3 553.2 479.2 552.6 478.8 552.9 476.9 552.9 475.9 554.3 475.6 555.8L476.9 569.8 468.6 562.6C467.3 561.6 465.4 561.6 464.4 563 463.8 564 463.8 565.9 464.9 566.5L477.8 577.6 479.4 596.7 449.8 571.9C448.4 570.9 446.8 571.3 445.5 572.3 444.9 573.3 444.9 575.2 446.3 576.2ZM464.9 635.5L481.9 623.6 484.6 621.7 487.4 623 505.8 631.6 508.9 633.3 509.1 636.4 510.9 656.7 511.1 659.8 508.5 661.6 491.4 673.5 488.8 675.3 486 674.1 467.6 665.4 464.8 664.2 464.2 660.6 462.5 640.4 462.3 637.3 464.9 635.5Z" fill="rgba(255, 199, 2, 0.58)"></path><path d="M242.1 407.7L279.7 399.1 288.9 404.5 288.1 428.3 278.6 433.6 241.6 422.2C241.2 422.2 241.2 422.2 240.7 422.2 239.8 422.2 238.8 422.6 238.3 424 238.3 425.4 238.7 426.3 240.1 426.8L272.5 436.7 257.8 444.6 243.4 440.5C243.4 440.5 243 440.5 243 440.5 242 440.4 241.1 440.9 240.6 442.3 240.1 443.2 241 444.6 242.3 445.1L251.6 448.2 240.7 453.9C239.7 454.4 239.2 455.8 239.7 457.2S241.9 458.6 243.4 458.2L253.8 452.5 251.2 461.7C250.7 463.1 251.6 464.5 253 465 253.9 465.1 255.3 464.6 255.8 463.3L260 448.9 275.2 441 265.3 473.3C264.8 474.7 265.7 476.2 266.6 476.6 268 476.7 269.4 476.3 269.9 474.9L280.8 437.9 290.8 432.6 310.5 444.8 310.2 456 282.3 482.7C281.3 483.6 281.3 485 282.2 486S284.5 487 285.5 486.1L310 462.5 309.5 479.8 298.9 489.8C297.9 490.7 297.9 492.1 298.8 493.5S301.1 494.5 302.1 493.6L309.3 486.3 308.9 498.9C308.9 500.3 310.2 501.3 311.6 501.3 313 501.4 314 500.5 314 499.1L314.4 486.5 321.2 493.7C322.1 495.1 323.5 495.2 324.5 493.8 325.4 492.9 325.5 491.5 324.6 490.5L314.6 480 315.1 462.7 338.2 487.7C339.1 488.6 340.9 488.7 341.9 487.8S342.9 485.5 342 484.5L315.3 456.2 315.7 445 336.5 433.9 345.7 439.8 354.4 477.4C354.8 478.8 356.2 479.3 357.6 479.4 359 479 359.5 477.6 359.5 476.2L351.7 443.3 365.9 452.1 369.2 466.7C369.6 468.1 371 468.6 372.4 468.6 373.3 468.2 374.3 466.8 373.9 465.4L371.8 456 382.4 462.4C383.3 462.9 384.7 462.5 385.7 461.5 386.2 460.2 385.7 458.7 384.8 458.3L374.3 451.9 384.1 449.4C385.1 448.9 386.1 447.6 385.6 446.6 385.7 445.2 384.8 444.7 383.4 444.7 383.4 444.7 382.9 444.7 382.9 444.7L368.3 448 354.1 439.1 387 431.2C388.4 430.8 389.4 429.9 389 428.5 388.6 427.1 387.6 426.6 386.7 426.6 386.2 426.6 386.2 426.6 386.2 426.6L348.1 435.7 339 429.8 339.7 406 349.2 401.2 386.7 412.1C387.6 412.6 389 411.7 389.5 410.8 390 409.4 389.1 408 387.7 407.5L355.4 397.6 370.1 389.6 384.4 393.8C385.8 394.3 387.2 393.9 387.3 392.5 387.8 391.1 386.9 389.7 386 389.2L376.2 386.6 387.1 380.8C388.1 379.9 388.6 378.5 388.2 377.1 387.7 376.6 386.8 376.1 385.9 376.1 385.4 376.1 385.4 376.1 384.9 376.6L374 382.3 376.7 372.6C377.2 371.2 376.3 370.2 375.3 369.7 374.9 369.7 374.9 369.7 374.4 369.7 373.5 369.7 372.5 370.1 372 371L367.9 385.4 353.2 393.3 363 361C363 359.6 362.6 358.1 361.2 358.1 360.8 357.6 360.8 357.6 360.3 357.6 359.4 357.6 358.4 358.5 357.9 359.4L347 396.9 337.5 401.7 317.3 389.5 317.6 378.7 346 352C346.9 351.1 347 349.3 346.1 348.3S343.3 347.3 342.4 348.2L317.8 371.7 318.4 354.9 328.9 344.5C329.9 343.6 329.9 342.2 329 341.3 328.1 340.3 326.7 340.3 325.8 341.2L318.6 348 318.9 335.4C319 334.4 318.1 333 316.7 333 315.3 332.9 313.8 334.3 313.8 335.2L313.4 347.8 306.6 340.6C306.2 340.1 305.7 339.6 305.3 339.6 304.3 339.6 303.9 340 303.4 340.5 302.4 341.4 302.4 342.8 303.3 343.8L313.2 354.8 312.7 371.6 289.7 346.6C289.2 346.1 288.7 346.1 287.8 346.1 287.3 346.1 286.9 346.1 286.4 346.5 285.4 347.4 285.4 349.3 286.3 350.2L312.5 378.6 312.2 389.3 291.8 400.4 282.1 394.9 273.5 356.9C273 355.9 272.1 355 271.2 354.9 270.7 354.9 270.7 354.9 270.7 355.4 269.3 355.3 268.3 356.7 268.8 358.1L276.7 391 262 382.2 258.7 367.6C258.2 366.7 257.3 366.2 256.4 366.2 256.4 366.2 255.9 366.1 255.9 366.1 254.5 366.1 253.5 367.5 254 368.9L256.5 378.8 245.9 372.4C245.5 371.9 245 371.9 244.5 371.9 243.6 371.8 242.7 372.3 242.7 372.7 241.7 374.1 242.1 375.5 243 376.5L253.6 382.9 244.2 384.9C242.7 385.4 241.8 386.7 242.2 388.1 242.6 389.1 244 390.1 244.9 389.6L259.5 386.3 273.7 395.2 240.8 403C239.4 403.5 238.9 404.9 238.8 406.3 239.3 407.2 240.7 408.2 242.1 407.7ZM293.4 425.6L293.9 407.4 294 404.6 296.4 403.3 312 394.9 314.9 393.6 317.1 395.1 332.3 404.4 334.6 405.9 334.5 408.7 333.9 426.8 333.9 429.6 331.5 431 315.8 439.4 313.4 440.7 310.7 439.2 295.6 429.9 293.3 428.4 293.4 425.6Z" fill="rgba(255, 199, 2, 0.58)"></path></g><defs><mask id="SvgjsMask1036"><rect width="1200" height="1000" fill="#ffffff"></rect></mask><filter id="SvgjsFilter1037"><feGaussianBlur stdDeviation="1"></feGaussianBlur></filter></defs></svg>